# xmcd CD database file
#
# Track frame offsets:
#	150
#	15599
#	35248
#	58046
#	77695
#	105293
#	125991
#	156440
#	173089
#	197237
#
# Disc length: 2975 seconds
#
# Revision: 0
# Processed by: cddbd v1.5.2PL0 Copyright (c) Steve Scherf et al.
# Submitted via: CDex 1.70beta2
#
DISCID=850b9d0a
DTITLE=Lone Rhino Club - Vino Viejo. Blues Luchado y Poco Hecho
DYEAR=2009
DGENRE=Blues
TTITLE0=The Blues Had a Baby and They Name is R&R
TTITLE1=You Gotta Move
TTITLE2=I Got a Woman
TTITLE3=Woke Up This Morning
TTITLE4=Georgia On My Mind
TTITLE5=Come Up To The House
TTITLE6=Little Red Rooster
TTITLE7=Trouble
TTITLE8=Minnie The Moocher
TTITLE9=Got My Mojo Working
EXTD=YEAR: 2009
EXTT0=
EXTT1=
EXTT2=
EXTT3=
EXTT4=
EXTT5=
EXTT6=
EXTT7=
EXTT8=
EXTT9=
PLAYORDER=
